<svg width="397" height="268" viewBox="0 0 397 268" fill="none" xmlns="http://www.w3.org/2000/svg">
<path d="M129.995 368.92C60.6624 368.92 4.45579 312.635 4.45579 243.202C4.45579 173.769 60.6624 117.484 129.995 117.484C199.328 117.484 255.535 173.769 255.535 243.202C255.535 312.635 199.328 368.92 129.995 368.92Z" stroke="#E5E5E5"/>
<path d="M143.263 373.902C65.6865 373.902 2.79748 310.925 2.79748 233.237C2.79748 155.549 65.6865 92.5723 143.263 92.5723C220.839 92.5723 283.728 155.549 283.728 233.237C283.728 310.925 220.839 373.902 143.263 373.902Z" stroke="#E5E5E5"/>
<path d="M154.042 378.885C69.1388 378.885 0.309743 309.959 0.309747 224.934C0.30975 139.909 69.1388 70.9834 154.042 70.9834C238.946 70.9834 307.775 139.909 307.775 224.934C307.775 309.959 238.946 378.885 154.042 378.885Z" stroke="#E5E5E5"/>
<path d="M169.798 382.206C78.4827 382.206 4.4562 308.076 4.4562 216.63C4.4562 125.184 78.4827 51.0537 169.798 51.0537C261.112 51.0537 335.139 125.184 335.139 216.63C335.139 308.076 261.112 382.206 169.798 382.206Z" stroke="#E5E5E5"/>
<path d="M185.138 385.527C87.6404 385.527 8.60204 306.378 8.60204 208.741C8.60205 111.104 87.6404 31.9551 185.138 31.9551C282.635 31.9551 361.673 111.104 361.673 208.741C361.673 306.378 282.635 385.527 185.138 385.527Z" stroke="#E5E5E5"/>
<path d="M202.551 389.68C95.4366 389.68 8.60204 302.723 8.60204 195.456C8.60205 88.1879 95.4366 1.23143 202.551 1.23144C309.665 1.23144 396.5 88.1879 396.5 195.456C396.5 302.723 309.665 389.68 202.551 389.68Z" stroke="#E5E5E5"/>
</svg>
